<svg xmlns="http://www.w3.org/2000/svg" xmlns:xlink="http://www.w3.org/1999/xlink" width="1080" zoomAndPan="magnify" viewBox="0 0 810 809.999993" height="1080" preserveAspectRatio="xMidYMid meet" version="1.0"><defs><clipPath id="c732859c44"><path d="M 1.632812 82 L 785 82 L 785 636 L 1.632812 636 Z M 1.632812 82 " clip-rule="nonzero"/></clipPath></defs><path fill="#e3dbc6" d="M 790.292969 219.335938 L 320.648438 219.335938 C 305.355469 219.335938 296.652344 231.15625 301.1875 245.765625 L 375.484375 463.402344 C 379.144531 475.144531 392.097656 484.660156 404.398438 484.660156 L 712.304688 484.660156 C 724.605469 484.660156 737.542969 475.144531 741.1875 463.402344 L 805.933594 240.625 C 809.609375 228.882812 802.609375 219.335938 790.292969 219.335938 Z M 790.292969 219.335938 " fill-opacity="1" fill-rule="nonzero"/><path fill="#e3dbc6" d="M 433.375 735.378906 C 433.375 736.527344 433.34375 737.679688 433.289062 738.828125 C 433.230469 739.976562 433.148438 741.121094 433.035156 742.265625 C 432.921875 743.410156 432.78125 744.550781 432.613281 745.6875 C 432.445312 746.824219 432.246094 747.957031 432.023438 749.085938 C 431.800781 750.214844 431.546875 751.335938 431.269531 752.449219 C 430.988281 753.566406 430.683594 754.671875 430.347656 755.773438 C 430.015625 756.875 429.652344 757.964844 429.265625 759.046875 C 428.878906 760.128906 428.464844 761.203125 428.027344 762.265625 C 427.585938 763.328125 427.121094 764.378906 426.628906 765.417969 C 426.136719 766.457031 425.621094 767.484375 425.078125 768.496094 C 424.535156 769.511719 423.96875 770.511719 423.378906 771.496094 C 422.785156 772.484375 422.171875 773.453125 421.535156 774.410156 C 420.894531 775.367188 420.234375 776.304688 419.546875 777.230469 C 418.863281 778.152344 418.15625 779.058594 417.425781 779.949219 C 416.695312 780.835938 415.945312 781.707031 415.175781 782.558594 C 414.402344 783.410156 413.609375 784.242188 412.796875 785.054688 C 411.984375 785.871094 411.152344 786.664062 410.300781 787.433594 C 409.445312 788.207031 408.578125 788.957031 407.6875 789.6875 C 406.800781 790.414062 405.894531 791.125 404.96875 791.808594 C 404.046875 792.492188 403.105469 793.15625 402.148438 793.792969 C 401.195312 794.433594 400.222656 795.046875 399.238281 795.636719 C 398.25 796.230469 397.25 796.796875 396.238281 797.339844 C 395.222656 797.878906 394.195312 798.398438 393.15625 798.886719 C 392.117188 799.378906 391.066406 799.84375 390.003906 800.285156 C 388.941406 800.726562 387.871094 801.140625 386.789062 801.527344 C 385.703125 801.914062 384.613281 802.273438 383.511719 802.609375 C 382.414062 802.941406 381.304688 803.25 380.191406 803.527344 C 379.074219 803.808594 377.953125 804.058594 376.824219 804.285156 C 375.699219 804.507812 374.566406 804.703125 373.425781 804.875 C 372.289062 805.042969 371.148438 805.183594 370.003906 805.296875 C 368.859375 805.40625 367.714844 805.492188 366.566406 805.550781 C 365.417969 805.605469 364.269531 805.632812 363.121094 805.632812 C 361.96875 805.632812 360.820312 805.605469 359.671875 805.550781 C 358.523438 805.492188 357.378906 805.40625 356.234375 805.296875 C 355.089844 805.183594 353.949219 805.042969 352.8125 804.875 C 351.671875 804.703125 350.542969 804.507812 349.414062 804.285156 C 348.285156 804.058594 347.164062 803.808594 346.050781 803.527344 C 344.933594 803.25 343.824219 802.941406 342.726562 802.609375 C 341.625 802.273438 340.535156 801.914062 339.453125 801.527344 C 338.367188 801.140625 337.296875 800.726562 336.234375 800.285156 C 335.171875 799.84375 334.121094 799.378906 333.082031 798.886719 C 332.042969 798.398438 331.015625 797.878906 330 797.339844 C 328.988281 796.796875 327.988281 796.230469 327 795.636719 C 326.015625 795.046875 325.042969 794.433594 324.089844 793.792969 C 323.132812 793.15625 322.191406 792.492188 321.269531 791.808594 C 320.34375 791.125 319.4375 790.414062 318.550781 789.6875 C 317.660156 788.957031 316.792969 788.207031 315.941406 787.433594 C 315.085938 786.664062 314.253906 785.871094 313.441406 785.054688 C 312.628906 784.242188 311.835938 783.410156 311.0625 782.558594 C 310.292969 781.707031 309.542969 780.835938 308.8125 779.949219 C 308.082031 779.058594 307.375 778.152344 306.691406 777.230469 C 306.003906 776.304688 305.34375 775.367188 304.703125 774.410156 C 304.066406 773.453125 303.453125 772.484375 302.859375 771.496094 C 302.269531 770.511719 301.703125 769.511719 301.160156 768.496094 C 300.617188 767.484375 300.101562 766.457031 299.609375 765.417969 C 299.117188 764.378906 298.652344 763.328125 298.214844 762.265625 C 297.773438 761.203125 297.359375 760.128906 296.972656 759.046875 C 296.585938 757.964844 296.222656 756.875 295.890625 755.773438 C 295.554688 754.671875 295.25 753.566406 294.96875 752.449219 C 294.691406 751.335938 294.4375 750.214844 294.214844 749.085938 C 293.992188 747.957031 293.792969 746.824219 293.625 745.6875 C 293.457031 744.550781 293.316406 743.410156 293.203125 742.265625 C 293.089844 741.121094 293.007812 739.976562 292.949219 738.828125 C 292.894531 737.679688 292.863281 736.527344 292.863281 735.378906 C 292.863281 734.230469 292.894531 733.082031 292.949219 731.933594 C 293.007812 730.785156 293.089844 729.636719 293.203125 728.492188 C 293.316406 727.347656 293.457031 726.207031 293.625 725.070312 C 293.792969 723.933594 293.992188 722.800781 294.214844 721.671875 C 294.4375 720.546875 294.691406 719.425781 294.96875 718.308594 C 295.25 717.195312 295.554688 716.085938 295.890625 714.984375 C 296.222656 713.886719 296.585938 712.792969 296.972656 711.710938 C 297.359375 710.628906 297.773438 709.554688 298.214844 708.496094 C 298.652344 707.433594 299.117188 706.382812 299.609375 705.34375 C 300.101562 704.300781 300.617188 703.277344 301.160156 702.261719 C 301.703125 701.246094 302.269531 700.246094 302.859375 699.261719 C 303.453125 698.273438 304.066406 697.304688 304.707031 696.347656 C 305.34375 695.390625 306.003906 694.453125 306.691406 693.527344 C 307.375 692.605469 308.082031 691.699219 308.8125 690.8125 C 309.542969 689.921875 310.292969 689.050781 311.0625 688.199219 C 311.835938 687.347656 312.628906 686.515625 313.441406 685.703125 C 314.253906 684.890625 315.085938 684.097656 315.941406 683.324219 C 316.792969 682.550781 317.660156 681.800781 318.550781 681.074219 C 319.4375 680.34375 320.34375 679.636719 321.269531 678.949219 C 322.191406 678.265625 323.132812 677.605469 324.089844 676.964844 C 325.042969 676.328125 326.015625 675.710938 327 675.121094 C 327.988281 674.53125 328.988281 673.964844 330 673.421875 C 331.015625 672.878906 332.042969 672.363281 333.082031 671.871094 C 334.121094 671.378906 335.171875 670.914062 336.234375 670.472656 C 337.296875 670.03125 338.367188 669.621094 339.453125 669.230469 C 340.535156 668.84375 341.625 668.484375 342.726562 668.152344 C 343.824219 667.816406 344.933594 667.511719 346.050781 667.230469 C 347.164062 666.953125 348.285156 666.699219 349.414062 666.476562 C 350.542969 666.25 351.671875 666.054688 352.8125 665.886719 C 353.949219 665.71875 355.089844 665.578125 356.234375 665.464844 C 357.378906 665.351562 358.523438 665.265625 359.671875 665.210938 C 360.820312 665.152344 361.96875 665.125 363.121094 665.125 C 364.269531 665.125 365.417969 665.152344 366.566406 665.210938 C 367.714844 665.265625 368.859375 665.351562 370.003906 665.464844 C 371.148438 665.578125 372.289062 665.71875 373.425781 665.886719 C 374.566406 666.054688 375.699219 666.25 376.824219 666.476562 C 377.953125 666.699219 379.074219 666.953125 380.191406 667.230469 C 381.304688 667.511719 382.414062 667.816406 383.511719 668.152344 C 384.613281 668.484375 385.703125 668.84375 386.789062 669.230469 C 387.871094 669.621094 388.941406 670.03125 390.003906 670.472656 C 391.066406 670.914062 392.117188 671.378906 393.15625 671.871094 C 394.195312 672.363281 395.222656 672.878906 396.238281 673.421875 C 397.25 673.960938 398.25 674.53125 399.238281 675.121094 C 400.222656 675.710938 401.195312 676.328125 402.148438 676.964844 C 403.105469 677.605469 404.046875 678.265625 404.96875 678.949219 C 405.894531 679.636719 406.800781 680.34375 407.6875 681.074219 C 408.578125 681.800781 409.445312 682.550781 410.300781 683.324219 C 411.152344 684.097656 411.984375 684.890625 412.796875 685.703125 C 413.609375 686.515625 414.402344 687.347656 415.175781 688.199219 C 415.945312 689.050781 416.695312 689.921875 417.425781 690.8125 C 418.15625 691.699219 418.863281 692.605469 419.546875 693.527344 C 420.234375 694.453125 420.894531 695.390625 421.535156 696.347656 C 422.171875 697.304688 422.785156 698.273438 423.378906 699.261719 C 423.96875 700.246094 424.535156 701.246094 425.078125 702.261719 C 425.621094 703.277344 426.136719 704.300781 426.628906 705.34375 C 427.121094 706.382812 427.585938 707.433594 428.027344 708.496094 C 428.464844 709.554688 428.878906 710.628906 429.265625 711.710938 C 429.652344 712.792969 430.015625 713.886719 430.347656 714.984375 C 430.683594 716.085938 430.988281 717.195312 431.269531 718.308594 C 431.546875 719.425781 431.800781 720.546875 432.023438 721.671875 C 432.246094 722.800781 432.445312 723.933594 432.613281 725.070312 C 432.78125 726.207031 432.921875 727.347656 433.035156 728.492188 C 433.148438 729.636719 433.230469 730.785156 433.289062 731.933594 C 433.34375 733.082031 433.375 734.230469 433.375 735.378906 Z M 433.375 735.378906 " fill-opacity="1" fill-rule="nonzero"/><path fill="#e3dbc6" d="M 730.652344 736.269531 C 730.652344 737.421875 730.625 738.570312 730.566406 739.71875 C 730.511719 740.867188 730.425781 742.011719 730.3125 743.15625 C 730.203125 744.300781 730.0625 745.441406 729.890625 746.578125 C 729.722656 747.714844 729.527344 748.847656 729.300781 749.976562 C 729.078125 751.105469 728.828125 752.226562 728.546875 753.339844 C 728.265625 754.457031 727.960938 755.5625 727.628906 756.664062 C 727.292969 757.765625 726.933594 758.855469 726.546875 759.9375 C 726.15625 761.019531 725.746094 762.09375 725.304688 763.15625 C 724.863281 764.21875 724.398438 765.269531 723.90625 766.308594 C 723.414062 767.347656 722.898438 768.375 722.355469 769.386719 C 721.816406 770.402344 721.25 771.402344 720.65625 772.386719 C 720.066406 773.375 719.449219 774.34375 718.8125 775.300781 C 718.171875 776.257812 717.511719 777.199219 716.828125 778.121094 C 716.140625 779.042969 715.433594 779.949219 714.707031 780.839844 C 713.976562 781.726562 713.226562 782.597656 712.453125 783.449219 C 711.679688 784.300781 710.886719 785.132812 710.074219 785.949219 C 709.261719 786.761719 708.429688 787.554688 707.578125 788.324219 C 706.726562 789.097656 705.855469 789.847656 704.96875 790.578125 C 704.078125 791.308594 703.171875 792.015625 702.25 792.699219 C 701.324219 793.382812 700.386719 794.046875 699.429688 794.683594 C 698.472656 795.324219 697.503906 795.9375 696.515625 796.53125 C 695.53125 797.121094 694.53125 797.6875 693.515625 798.230469 C 692.5 798.769531 691.476562 799.289062 690.4375 799.78125 C 689.394531 800.269531 688.34375 800.738281 687.28125 801.175781 C 686.222656 801.617188 685.148438 802.03125 684.066406 802.417969 C 682.984375 802.804688 681.890625 803.164062 680.792969 803.5 C 679.691406 803.832031 678.582031 804.140625 677.46875 804.417969 C 676.351562 804.699219 675.230469 804.949219 674.105469 805.175781 C 672.976562 805.398438 671.84375 805.59375 670.707031 805.765625 C 669.570312 805.933594 668.429688 806.074219 667.285156 806.1875 C 666.140625 806.300781 664.992188 806.382812 663.84375 806.441406 C 662.695312 806.496094 661.546875 806.523438 660.398438 806.523438 C 659.25 806.523438 658.097656 806.496094 656.949219 806.441406 C 655.800781 806.382812 654.65625 806.300781 653.511719 806.1875 C 652.367188 806.074219 651.226562 805.933594 650.089844 805.765625 C 648.953125 805.59375 647.820312 805.398438 646.691406 805.175781 C 645.566406 804.949219 644.441406 804.699219 643.328125 804.417969 C 642.210938 804.140625 641.105469 803.832031 640.003906 803.5 C 638.902344 803.164062 637.8125 802.804688 636.730469 802.417969 C 635.648438 802.03125 634.574219 801.617188 633.511719 801.175781 C 632.449219 800.738281 631.398438 800.269531 630.359375 799.78125 C 629.320312 799.289062 628.292969 798.769531 627.28125 798.230469 C 626.265625 797.6875 625.265625 797.121094 624.28125 796.53125 C 623.292969 795.9375 622.324219 795.324219 621.367188 794.683594 C 620.410156 794.046875 619.472656 793.382812 618.546875 792.699219 C 617.625 792.015625 616.71875 791.308594 615.828125 790.578125 C 614.941406 789.847656 614.070312 789.097656 613.21875 788.324219 C 612.367188 787.554688 611.535156 786.761719 610.722656 785.949219 C 609.90625 785.132812 609.117188 784.300781 608.34375 783.449219 C 607.570312 782.597656 606.820312 781.726562 606.089844 780.839844 C 605.363281 779.949219 604.65625 779.042969 603.96875 778.121094 C 603.285156 777.199219 602.621094 776.257812 601.984375 775.300781 C 601.34375 774.34375 600.730469 773.375 600.140625 772.386719 C 599.546875 771.402344 598.980469 770.402344 598.441406 769.386719 C 597.898438 768.375 597.378906 767.347656 596.890625 766.308594 C 596.398438 765.269531 595.933594 764.21875 595.492188 763.15625 C 595.050781 762.09375 594.636719 761.019531 594.25 759.9375 C 593.863281 758.855469 593.503906 757.765625 593.167969 756.664062 C 592.835938 755.5625 592.527344 754.457031 592.25 753.339844 C 591.96875 752.226562 591.71875 751.105469 591.492188 749.976562 C 591.269531 748.847656 591.074219 747.714844 590.90625 746.578125 C 590.734375 745.441406 590.59375 744.300781 590.480469 743.15625 C 590.371094 742.011719 590.285156 740.867188 590.230469 739.71875 C 590.171875 738.570312 590.144531 737.421875 590.144531 736.269531 C 590.144531 735.121094 590.171875 733.972656 590.230469 732.824219 C 590.285156 731.675781 590.371094 730.527344 590.480469 729.382812 C 590.59375 728.242188 590.734375 727.097656 590.90625 725.960938 C 591.074219 724.824219 591.269531 723.691406 591.492188 722.566406 C 591.71875 721.4375 591.96875 720.316406 592.25 719.199219 C 592.527344 718.085938 592.835938 716.976562 593.167969 715.878906 C 593.503906 714.777344 593.863281 713.683594 594.25 712.601562 C 594.636719 711.519531 595.050781 710.449219 595.492188 709.386719 C 595.933594 708.324219 596.398438 707.273438 596.890625 706.234375 C 597.378906 705.195312 597.898438 704.167969 598.441406 703.152344 C 598.980469 702.140625 599.546875 701.140625 600.140625 700.152344 C 600.730469 699.167969 601.34375 698.195312 601.984375 697.238281 C 602.621094 696.285156 603.285156 695.34375 603.96875 694.421875 C 604.65625 693.496094 605.363281 692.589844 606.089844 691.703125 C 606.820312 690.8125 607.570312 689.941406 608.34375 689.089844 C 609.117188 688.238281 609.90625 687.40625 610.722656 686.59375 C 611.535156 685.78125 612.367188 684.988281 613.21875 684.214844 C 614.070312 683.445312 614.941406 682.691406 615.828125 681.964844 C 616.71875 681.234375 617.625 680.527344 618.546875 679.84375 C 619.472656 679.15625 620.410156 678.496094 621.367188 677.855469 C 622.324219 677.21875 623.292969 676.601562 624.28125 676.011719 C 625.265625 675.421875 626.265625 674.855469 627.28125 674.3125 C 628.292969 673.769531 629.320312 673.253906 630.359375 672.761719 C 631.398438 672.269531 632.449219 671.804688 633.511719 671.363281 C 634.574219 670.925781 635.648438 670.511719 636.730469 670.125 C 637.8125 669.734375 638.902344 669.375 640.003906 669.042969 C 641.105469 668.707031 642.210938 668.402344 643.328125 668.121094 C 644.441406 667.84375 645.566406 667.589844 646.691406 667.367188 C 647.820312 667.140625 648.953125 666.945312 650.089844 666.777344 C 651.226562 666.609375 652.367188 666.46875 653.511719 666.355469 C 654.65625 666.242188 655.800781 666.15625 656.949219 666.101562 C 658.097656 666.042969 659.25 666.015625 660.398438 666.015625 C 661.546875 666.015625 662.695312 666.042969 663.84375 666.101562 C 664.992188 666.15625 666.140625 666.242188 667.285156 666.355469 C 668.429688 666.46875 669.570312 666.609375 670.707031 666.777344 C 671.84375 666.945312 672.976562 667.140625 674.105469 667.367188 C 675.230469 667.589844 676.351562 667.84375 677.46875 668.121094 C 678.582031 668.402344 679.691406 668.707031 680.792969 669.042969 C 681.890625 669.375 682.984375 669.734375 684.066406 670.125 C 685.148438 670.511719 686.222656 670.925781 687.28125 671.363281 C 688.34375 671.804688 689.394531 672.269531 690.4375 672.761719 C 691.476562 673.253906 692.5 673.769531 693.515625 674.3125 C 694.53125 674.855469 695.53125 675.421875 696.515625 676.011719 C 697.503906 676.601562 698.472656 677.21875 699.429688 677.855469 C 700.386719 678.496094 701.324219 679.15625 702.25 679.84375 C 703.171875 680.527344 704.078125 681.234375 704.96875 681.964844 C 705.855469 682.691406 706.726562 683.445312 707.578125 684.214844 C 708.429688 684.988281 709.261719 685.78125 710.074219 686.59375 C 710.886719 687.40625 711.679688 688.238281 712.453125 689.089844 C 713.226562 689.941406 713.976562 690.8125 714.707031 691.703125 C 715.433594 692.589844 716.140625 693.496094 716.828125 694.421875 C 717.511719 695.34375 718.171875 696.285156 718.8125 697.238281 C 719.449219 698.195312 720.066406 699.167969 720.65625 700.152344 C 721.25 701.140625 721.816406 702.140625 722.355469 703.152344 C 722.898438 704.167969 723.414062 705.195312 723.90625 706.234375 C 724.398438 707.273438 724.863281 708.324219 725.304688 709.386719 C 725.746094 710.449219 726.15625 711.519531 726.546875 712.601562 C 726.933594 713.683594 727.292969 714.777344 727.628906 715.875 C 727.960938 716.976562 728.265625 718.085938 728.546875 719.199219 C 728.828125 720.316406 729.078125 721.4375 729.300781 722.566406 C 729.527344 723.691406 729.722656 724.824219 729.890625 725.960938 C 730.0625 727.097656 730.203125 728.242188 730.3125 729.382812 C 730.425781 730.527344 730.511719 731.675781 730.566406 732.824219 C 730.625 733.972656 730.652344 735.121094 730.652344 736.269531 Z M 730.652344 736.269531 " fill-opacity="1" fill-rule="nonzero"/><g clip-path="url(#c732859c44)"><path fill="#e3dbc6" d="M 744.75 556.15625 L 333.871094 556.15625 L 169.382812 82.867188 L 41.304688 82.867188 C 19.328125 82.867188 1.523438 100.675781 1.523438 122.648438 C 1.523438 144.625 19.328125 162.429688 41.304688 162.429688 L 112.796875 162.429688 L 277.285156 635.71875 L 744.75 635.71875 C 766.726562 635.71875 784.53125 617.914062 784.53125 595.9375 C 784.53125 573.960938 766.726562 556.15625 744.75 556.15625 Z M 744.75 556.15625 " fill-opacity="1" fill-rule="nonzero"/></g></svg>