<svg xmlns="http://www.w3.org/2000/svg" xmlns:xlink="http://www.w3.org/1999/xlink" width="1000" zoomAndPan="magnify" viewBox="0 0 750 749.999995" height="1000" preserveAspectRatio="xMidYMid meet" version="1.0"><defs><clipPath id="369ed780f7"><path d="M 22 9.292969 L 724 9.292969 L 724 616 L 22 616 Z M 22 9.292969 " clip-rule="nonzero"/></clipPath></defs><path fill="#000000" d="M 267.003906 168.351562 L 241.285156 168.550781 C 240.308594 168.546875 239.335938 168.636719 238.378906 168.824219 C 237.417969 169.011719 236.484375 169.292969 235.582031 169.664062 C 234.675781 170.035156 233.816406 170.492188 233.003906 171.035156 C 232.1875 171.578125 231.4375 172.195312 230.746094 172.886719 C 230.054688 173.578125 229.4375 174.332031 228.894531 175.148438 C 228.355469 175.960938 227.898438 176.820312 227.527344 177.726562 C 227.15625 178.632812 226.878906 179.566406 226.691406 180.523438 C 226.507812 181.484375 226.417969 182.453125 226.421875 183.433594 C 226.429688 184.410156 226.53125 185.378906 226.730469 186.335938 C 226.929688 187.292969 227.222656 188.222656 227.605469 189.125 C 227.988281 190.023438 228.457031 190.875 229.007812 191.683594 C 229.5625 192.492188 230.1875 193.234375 230.890625 193.917969 C 231.589844 194.601562 232.351562 195.207031 233.171875 195.738281 C 233.992188 196.269531 234.859375 196.714844 235.769531 197.078125 C 236.675781 197.4375 237.613281 197.703125 238.578125 197.875 C 239.539062 198.050781 240.507812 198.128906 241.488281 198.109375 L 257.304688 197.992188 L 305.96875 314.777344 L 288.277344 343.0625 C 275.886719 362.847656 290.949219 390.023438 314.28125 390.023438 L 477.710938 390.023438 C 478.6875 390.039062 479.660156 389.957031 480.621094 389.777344 C 481.585938 389.597656 482.519531 389.324219 483.429688 388.960938 C 484.335938 388.597656 485.203125 388.144531 486.019531 387.609375 C 486.839844 387.070312 487.597656 386.457031 488.292969 385.769531 C 488.992188 385.082031 489.613281 384.335938 490.164062 383.523438 C 490.710938 382.710938 491.175781 381.855469 491.550781 380.949219 C 491.929688 380.046875 492.214844 379.117188 492.410156 378.15625 C 492.601562 377.195312 492.699219 376.226562 492.699219 375.246094 C 492.699219 374.269531 492.601562 373.296875 492.410156 372.339844 C 492.214844 371.378906 491.929688 370.445312 491.550781 369.542969 C 491.175781 368.640625 490.710938 367.78125 490.164062 366.972656 C 489.613281 366.160156 488.992188 365.410156 488.292969 364.722656 C 487.597656 364.035156 486.839844 363.421875 486.019531 362.886719 C 485.203125 362.347656 484.335938 361.898438 483.429688 361.53125 C 482.519531 361.167969 481.585938 360.894531 480.621094 360.714844 C 479.660156 360.539062 478.6875 360.453125 477.710938 360.46875 L 314.28125 360.46875 C 312.636719 360.46875 312.449219 360.144531 313.328125 358.738281 C 313.339844 358.738281 313.347656 358.738281 313.359375 358.738281 L 330.734375 330.910156 L 441.082031 330.910156 C 451.808594 330.910156 461.710938 325.085938 466.914062 315.699219 L 520.140625 219.84375 C 525.621094 210 518.5 197.90625 507.238281 197.90625 L 289.285156 197.90625 L 280.769531 177.441406 C 280.488281 176.769531 280.160156 176.117188 279.78125 175.492188 C 279.40625 174.867188 278.984375 174.273438 278.519531 173.710938 C 278.050781 173.148438 277.546875 172.621094 277.003906 172.132812 C 276.460938 171.644531 275.882812 171.199219 275.273438 170.796875 C 274.664062 170.394531 274.027344 170.039062 273.367188 169.730469 C 272.703125 169.421875 272.019531 169.164062 271.320312 168.957031 C 270.621094 168.75 269.90625 168.59375 269.183594 168.492188 C 268.460938 168.390625 267.734375 168.34375 267.003906 168.351562 Z M 315.148438 404.804688 C 314.179688 404.804688 313.214844 404.851562 312.25 404.945312 C 311.289062 405.039062 310.332031 405.183594 309.382812 405.371094 C 308.433594 405.558594 307.496094 405.796875 306.566406 406.078125 C 305.640625 406.355469 304.730469 406.683594 303.835938 407.054688 C 302.941406 407.425781 302.070312 407.835938 301.214844 408.292969 C 300.359375 408.75 299.53125 409.246094 298.726562 409.785156 C 297.921875 410.324219 297.144531 410.898438 296.398438 411.511719 C 295.648438 412.125 294.933594 412.777344 294.25 413.460938 C 293.5625 414.144531 292.914062 414.863281 292.300781 415.609375 C 291.6875 416.359375 291.109375 417.132812 290.574219 417.941406 C 290.035156 418.746094 289.539062 419.574219 289.082031 420.425781 C 288.625 421.28125 288.210938 422.15625 287.839844 423.050781 C 287.46875 423.945312 287.144531 424.855469 286.863281 425.78125 C 286.582031 426.707031 286.347656 427.644531 286.160156 428.59375 C 285.96875 429.542969 285.828125 430.5 285.734375 431.464844 C 285.636719 432.425781 285.589844 433.390625 285.589844 434.359375 C 285.589844 435.328125 285.636719 436.292969 285.734375 437.257812 C 285.828125 438.222656 285.96875 439.175781 286.160156 440.125 C 286.347656 441.074219 286.582031 442.015625 286.863281 442.941406 C 287.144531 443.867188 287.46875 444.777344 287.839844 445.671875 C 288.210938 446.566406 288.625 447.441406 289.082031 448.292969 C 289.539062 449.148438 290.035156 449.976562 290.574219 450.78125 C 291.109375 451.585938 291.6875 452.363281 292.300781 453.109375 C 292.914062 453.859375 293.5625 454.574219 294.25 455.261719 C 294.933594 455.945312 295.648438 456.59375 296.398438 457.207031 C 297.144531 457.820312 297.921875 458.398438 298.726562 458.9375 C 299.53125 459.472656 300.359375 459.96875 301.214844 460.425781 C 302.070312 460.882812 302.941406 461.296875 303.835938 461.667969 C 304.730469 462.039062 305.640625 462.363281 306.566406 462.644531 C 307.496094 462.925781 308.433594 463.160156 309.382812 463.347656 C 310.332031 463.539062 311.289062 463.679688 312.25 463.773438 C 313.214844 463.871094 314.179688 463.917969 315.148438 463.917969 C 316.117188 463.917969 317.082031 463.871094 318.042969 463.773438 C 319.007812 463.679688 319.964844 463.539062 320.914062 463.347656 C 321.863281 463.160156 322.800781 462.925781 323.726562 462.644531 C 324.652344 462.363281 325.5625 462.039062 326.457031 461.667969 C 327.351562 461.296875 328.226562 460.882812 329.082031 460.425781 C 329.933594 459.96875 330.765625 459.472656 331.570312 458.9375 C 332.375 458.398438 333.148438 457.820312 333.898438 457.207031 C 334.648438 456.59375 335.363281 455.945312 336.046875 455.261719 C 336.730469 454.574219 337.382812 453.859375 337.996094 453.109375 C 338.609375 452.363281 339.183594 451.585938 339.722656 450.78125 C 340.261719 449.976562 340.757812 449.148438 341.214844 448.292969 C 341.671875 447.441406 342.085938 446.566406 342.453125 445.671875 C 342.824219 444.777344 343.152344 443.867188 343.433594 442.941406 C 343.710938 442.015625 343.949219 441.074219 344.136719 440.125 C 344.324219 439.175781 344.46875 438.222656 344.5625 437.257812 C 344.65625 436.292969 344.703125 435.328125 344.703125 434.359375 C 344.703125 433.390625 344.65625 432.425781 344.5625 431.464844 C 344.46875 430.5 344.324219 429.542969 344.136719 428.59375 C 343.949219 427.644531 343.710938 426.707031 343.433594 425.78125 C 343.152344 424.855469 342.824219 423.945312 342.453125 423.050781 C 342.085938 422.15625 341.671875 421.28125 341.214844 420.425781 C 340.757812 419.574219 340.261719 418.746094 339.722656 417.941406 C 339.183594 417.132812 338.609375 416.359375 337.996094 415.609375 C 337.382812 414.863281 336.730469 414.144531 336.046875 413.460938 C 335.363281 412.777344 334.648438 412.125 333.898438 411.511719 C 333.148438 410.898438 332.375 410.324219 331.570312 409.785156 C 330.765625 409.246094 329.933594 408.75 329.082031 408.292969 C 328.226562 407.835938 327.351562 407.425781 326.457031 407.054688 C 325.5625 406.683594 324.652344 406.355469 323.726562 406.078125 C 322.800781 405.796875 321.863281 405.558594 320.914062 405.371094 C 319.964844 405.183594 319.007812 405.039062 318.042969 404.945312 C 317.082031 404.851562 316.117188 404.804688 315.148438 404.804688 Z M 462.929688 404.804688 C 461.964844 404.804688 460.996094 404.851562 460.035156 404.945312 C 459.070312 405.039062 458.113281 405.183594 457.164062 405.371094 C 456.214844 405.558594 455.277344 405.796875 454.351562 406.078125 C 453.425781 406.355469 452.515625 406.683594 451.621094 407.054688 C 450.726562 407.425781 449.851562 407.835938 449 408.292969 C 448.144531 408.75 447.316406 409.246094 446.511719 409.785156 C 445.707031 410.324219 444.929688 410.898438 444.179688 411.511719 C 443.433594 412.125 442.714844 412.777344 442.03125 413.460938 C 441.347656 414.144531 440.699219 414.863281 440.082031 415.609375 C 439.46875 416.359375 438.894531 417.132812 438.355469 417.941406 C 437.816406 418.746094 437.320312 419.574219 436.863281 420.425781 C 436.40625 421.28125 435.996094 422.15625 435.625 423.050781 C 435.253906 423.945312 434.929688 424.855469 434.648438 425.78125 C 434.367188 426.707031 434.132812 427.644531 433.941406 428.59375 C 433.753906 429.542969 433.613281 430.5 433.515625 431.464844 C 433.421875 432.425781 433.375 433.390625 433.375 434.359375 C 433.375 435.328125 433.421875 436.292969 433.515625 437.257812 C 433.613281 438.222656 433.753906 439.175781 433.941406 440.125 C 434.132812 441.074219 434.367188 442.015625 434.648438 442.941406 C 434.929688 443.867188 435.253906 444.777344 435.625 445.671875 C 435.996094 446.566406 436.40625 447.441406 436.863281 448.292969 C 437.320312 449.148438 437.816406 449.976562 438.355469 450.78125 C 438.894531 451.585938 439.46875 452.363281 440.082031 453.109375 C 440.699219 453.859375 441.347656 454.574219 442.03125 455.261719 C 442.714844 455.945312 443.433594 456.59375 444.179688 457.207031 C 444.929688 457.820312 445.707031 458.398438 446.511719 458.9375 C 447.316406 459.472656 448.144531 459.96875 449 460.425781 C 449.851562 460.882812 450.726562 461.296875 451.621094 461.667969 C 452.515625 462.039062 453.425781 462.363281 454.351562 462.644531 C 455.277344 462.925781 456.214844 463.160156 457.164062 463.347656 C 458.113281 463.539062 459.070312 463.679688 460.035156 463.773438 C 460.996094 463.871094 461.964844 463.917969 462.929688 463.917969 C 463.898438 463.917969 464.863281 463.871094 465.828125 463.773438 C 466.792969 463.679688 467.746094 463.539062 468.695312 463.347656 C 469.648438 463.160156 470.585938 462.925781 471.511719 462.644531 C 472.4375 462.363281 473.347656 462.039062 474.242188 461.667969 C 475.136719 461.296875 476.011719 460.882812 476.863281 460.425781 C 477.71875 459.96875 478.546875 459.472656 479.351562 458.9375 C 480.15625 458.398438 480.933594 457.820312 481.679688 457.207031 C 482.429688 456.59375 483.144531 455.945312 483.832031 455.261719 C 484.515625 454.574219 485.164062 453.859375 485.777344 453.109375 C 486.394531 452.363281 486.96875 451.585938 487.507812 450.78125 C 488.042969 449.976562 488.542969 449.148438 488.996094 448.292969 C 489.453125 447.441406 489.867188 446.566406 490.238281 445.671875 C 490.609375 444.777344 490.933594 443.867188 491.214844 442.941406 C 491.496094 442.015625 491.730469 441.074219 491.917969 440.125 C 492.109375 439.175781 492.25 438.222656 492.34375 437.257812 C 492.441406 436.292969 492.488281 435.328125 492.488281 434.359375 C 492.488281 433.390625 492.441406 432.425781 492.34375 431.464844 C 492.25 430.5 492.109375 429.542969 491.917969 428.59375 C 491.730469 427.644531 491.496094 426.707031 491.214844 425.78125 C 490.933594 424.855469 490.609375 423.945312 490.238281 423.050781 C 489.867188 422.15625 489.453125 421.28125 488.996094 420.425781 C 488.542969 419.574219 488.042969 418.746094 487.507812 417.941406 C 486.96875 417.132812 486.394531 416.359375 485.777344 415.609375 C 485.164062 414.863281 484.515625 414.144531 483.832031 413.460938 C 483.144531 412.777344 482.429688 412.125 481.679688 411.511719 C 480.933594 410.898438 480.15625 410.324219 479.351562 409.785156 C 478.546875 409.246094 477.71875 408.75 476.863281 408.292969 C 476.011719 407.835938 475.136719 407.425781 474.242188 407.054688 C 473.347656 406.683594 472.4375 406.355469 471.511719 406.078125 C 470.585938 405.796875 469.648438 405.558594 468.695312 405.371094 C 467.746094 405.183594 466.792969 405.039062 465.828125 404.945312 C 464.863281 404.851562 463.898438 404.804688 462.929688 404.804688 Z M 462.929688 404.804688 " fill-opacity="1" fill-rule="nonzero"/><g clip-path="url(#369ed780f7)"><path fill="#e2dac5" d="M 626.800781 547.988281 L 278.265625 547.988281 C 277.273438 548.023438 276.277344 548.007812 275.285156 547.941406 C 274.292969 547.875 273.308594 547.757812 272.328125 547.59375 C 271.347656 547.425781 270.375 547.214844 269.417969 546.949219 C 268.457031 546.6875 267.515625 546.378906 266.585938 546.019531 C 265.65625 545.664062 264.75 545.261719 263.863281 544.8125 C 262.976562 544.363281 262.113281 543.871094 261.273438 543.335938 C 260.433594 542.800781 259.625 542.226562 258.84375 541.609375 C 258.0625 540.992188 257.316406 540.339844 256.601562 539.648438 C 255.886719 538.957031 255.207031 538.230469 254.566406 537.472656 C 253.921875 536.714844 253.320312 535.921875 252.757812 535.105469 C 252.195312 534.285156 251.675781 533.4375 251.195312 532.566406 C 250.71875 531.691406 250.285156 530.800781 249.898438 529.882812 C 249.507812 528.96875 249.167969 528.035156 248.871094 527.085938 C 248.578125 526.136719 248.332031 525.171875 248.132812 524.199219 C 247.933594 523.222656 247.785156 522.242188 247.6875 521.253906 C 247.585938 520.261719 247.539062 519.269531 247.539062 518.277344 C 247.539062 517.28125 247.585938 516.289062 247.6875 515.300781 C 247.785156 514.3125 247.933594 513.328125 248.132812 512.355469 C 248.332031 511.378906 248.578125 510.417969 248.871094 509.46875 C 249.167969 508.515625 249.507812 507.585938 249.898438 506.667969 C 250.285156 505.753906 250.71875 504.859375 251.195312 503.988281 C 251.675781 503.113281 252.195312 502.269531 252.757812 501.449219 C 253.320312 500.628906 253.921875 499.839844 254.566406 499.082031 C 255.207031 498.320312 255.886719 497.59375 256.601562 496.902344 C 257.316406 496.210938 258.0625 495.558594 258.84375 494.941406 C 259.625 494.328125 260.433594 493.75 261.273438 493.214844 C 262.113281 492.679688 262.976562 492.1875 263.863281 491.742188 C 264.75 491.292969 265.65625 490.890625 266.585938 490.53125 C 267.515625 490.175781 268.457031 489.863281 269.417969 489.601562 C 270.375 489.339844 271.347656 489.125 272.328125 488.960938 C 273.308594 488.796875 274.292969 488.679688 275.285156 488.613281 C 276.277344 488.546875 277.273438 488.53125 278.265625 488.5625 L 626.800781 488.5625 C 627.753906 488.566406 628.699219 488.527344 629.644531 488.445312 C 630.59375 488.367188 631.535156 488.246094 632.46875 488.089844 C 633.40625 487.929688 634.332031 487.730469 635.253906 487.492188 C 636.171875 487.257812 637.078125 486.980469 637.976562 486.664062 C 638.871094 486.351562 639.753906 486 640.617188 485.609375 C 641.484375 485.222656 642.332031 484.796875 643.164062 484.335938 C 643.992188 483.875 644.804688 483.382812 645.59375 482.851562 C 646.378906 482.324219 647.144531 481.761719 647.886719 481.167969 C 648.625 480.574219 649.339844 479.949219 650.03125 479.296875 C 650.71875 478.640625 651.378906 477.960938 652.007812 477.25 C 652.636719 476.539062 653.238281 475.804688 653.804688 475.042969 C 654.375 474.28125 654.910156 473.5 655.410156 472.691406 C 655.914062 471.886719 656.378906 471.0625 656.8125 470.214844 C 657.242188 469.371094 657.640625 468.507812 658 467.628906 C 658.355469 466.75 658.679688 465.855469 658.960938 464.949219 C 659.246094 464.046875 659.492188 463.128906 659.695312 462.203125 L 723.09375 176.996094 C 723.367188 175.769531 723.566406 174.53125 723.699219 173.28125 C 723.832031 172.03125 723.894531 170.78125 723.886719 169.523438 C 723.882812 168.269531 723.804688 167.015625 723.65625 165.769531 C 723.507812 164.519531 723.292969 163.285156 723.007812 162.0625 C 722.71875 160.839844 722.367188 159.636719 721.945312 158.453125 C 721.527344 157.269531 721.039062 156.109375 720.492188 154.980469 C 719.941406 153.851562 719.328125 152.757812 718.65625 151.695312 C 717.984375 150.636719 717.253906 149.613281 716.46875 148.636719 C 715.679688 147.65625 714.839844 146.722656 713.949219 145.839844 C 713.058594 144.953125 712.121094 144.121094 711.136719 143.339844 C 710.152344 142.558594 709.128906 141.835938 708.0625 141.171875 C 706.996094 140.503906 705.898438 139.902344 704.765625 139.359375 C 703.632812 138.816406 702.472656 138.335938 701.285156 137.925781 C 700.097656 137.511719 698.894531 137.167969 697.667969 136.890625 C 696.441406 136.609375 695.207031 136.402344 693.957031 136.261719 C 692.707031 136.125 691.457031 136.054688 690.199219 136.054688 L 214.867188 136.054688 C 212.453125 136.042969 210.0625 136.292969 207.695312 136.796875 L 184.332031 35.386719 C 184.117188 34.464844 183.867188 33.558594 183.578125 32.660156 C 183.289062 31.761719 182.964844 30.875 182.601562 30.003906 C 182.238281 29.132812 181.839844 28.28125 181.40625 27.441406 C 180.96875 26.605469 180.5 25.789062 179.996094 24.988281 C 179.492188 24.191406 178.957031 23.417969 178.386719 22.664062 C 177.820312 21.910156 177.21875 21.183594 176.589844 20.480469 C 175.960938 19.777344 175.300781 19.101562 174.613281 18.457031 C 173.925781 17.808594 173.214844 17.191406 172.476562 16.605469 C 171.738281 16.019531 170.976562 15.460938 170.191406 14.941406 C 169.40625 14.417969 168.597656 13.925781 167.773438 13.472656 C 166.945312 13.015625 166.101562 12.597656 165.238281 12.210938 C 164.378906 11.828125 163.5 11.480469 162.609375 11.167969 C 161.71875 10.859375 160.816406 10.585938 159.902344 10.351562 C 158.988281 10.117188 158.066406 9.921875 157.136719 9.761719 C 156.207031 9.605469 155.269531 9.488281 154.332031 9.410156 C 153.390625 9.332031 152.449219 9.292969 151.503906 9.292969 L 56.425781 9.292969 C 55.320312 9.292969 54.222656 9.347656 53.125 9.453125 C 52.027344 9.5625 50.9375 9.726562 49.855469 9.941406 C 48.773438 10.15625 47.707031 10.421875 46.652344 10.742188 C 45.597656 11.0625 44.558594 11.433594 43.539062 11.855469 C 42.523438 12.277344 41.527344 12.75 40.554688 13.269531 C 39.582031 13.789062 38.636719 14.355469 37.71875 14.96875 C 36.800781 15.578125 35.917969 16.234375 35.066406 16.933594 C 34.214844 17.636719 33.398438 18.375 32.617188 19.152344 C 31.835938 19.933594 31.097656 20.75 30.398438 21.601562 C 29.699219 22.453125 29.042969 23.339844 28.429688 24.257812 C 27.816406 25.171875 27.25 26.117188 26.730469 27.089844 C 26.210938 28.0625 25.742188 29.058594 25.320312 30.078125 C 24.898438 31.097656 24.527344 32.132812 24.207031 33.1875 C 23.886719 34.242188 23.617188 35.3125 23.402344 36.394531 C 23.1875 37.472656 23.027344 38.5625 22.917969 39.660156 C 22.808594 40.757812 22.757812 41.859375 22.757812 42.960938 C 22.757812 44.0625 22.808594 45.164062 22.917969 46.261719 C 23.027344 47.359375 23.1875 48.449219 23.402344 49.53125 C 23.617188 50.609375 23.886719 51.679688 24.207031 52.734375 C 24.527344 53.789062 24.898438 54.828125 25.320312 55.847656 C 25.742188 56.863281 26.210938 57.859375 26.730469 58.832031 C 27.25 59.804688 27.816406 60.75 28.429688 61.667969 C 29.042969 62.582031 29.699219 63.46875 30.398438 64.320312 C 31.097656 65.171875 31.835938 65.988281 32.617188 66.769531 C 33.398438 67.546875 34.214844 68.289062 35.066406 68.988281 C 35.917969 69.6875 36.800781 70.34375 37.71875 70.957031 C 38.636719 71.566406 39.582031 72.132812 40.554688 72.65625 C 41.527344 73.175781 42.523438 73.644531 43.539062 74.066406 C 44.558594 74.488281 45.597656 74.859375 46.652344 75.179688 C 47.707031 75.5 48.773438 75.769531 49.855469 75.984375 C 50.9375 76.199219 52.027344 76.359375 53.125 76.46875 C 54.222656 76.574219 55.320312 76.628906 56.425781 76.628906 L 124.703125 76.628906 L 210.625 448.902344 C 208.90625 450.570312 207.253906 452.300781 205.660156 454.09375 C 204.070312 455.882812 202.550781 457.734375 201.09375 459.636719 C 199.640625 461.542969 198.261719 463.496094 196.953125 465.503906 C 195.644531 467.511719 194.410156 469.5625 193.253906 471.660156 C 192.097656 473.761719 191.019531 475.898438 190.023438 478.078125 C 189.027344 480.253906 188.109375 482.46875 187.277344 484.714844 C 186.441406 486.960938 185.695312 489.234375 185.027344 491.535156 C 184.363281 493.835938 183.785156 496.160156 183.292969 498.503906 C 182.800781 500.847656 182.394531 503.207031 182.078125 505.582031 C 181.757812 507.957031 181.53125 510.339844 181.390625 512.734375 C 181.25 515.125 181.195312 517.519531 181.234375 519.914062 C 181.269531 522.308594 181.394531 524.699219 181.609375 527.085938 C 181.824219 529.472656 182.125 531.847656 182.515625 534.210938 C 182.90625 536.574219 183.382812 538.921875 183.949219 541.25 C 184.511719 543.578125 185.160156 545.882812 185.898438 548.164062 C 186.632812 550.441406 187.449219 552.691406 188.351562 554.914062 C 189.253906 557.132812 190.238281 559.316406 191.300781 561.460938 C 192.367188 563.609375 193.507812 565.710938 194.726562 567.773438 C 195.949219 569.835938 197.242188 571.851562 198.613281 573.816406 C 199.980469 575.78125 201.421875 577.695312 202.933594 579.554688 C 204.445312 581.410156 206.023438 583.210938 207.667969 584.953125 C 209.3125 586.695312 211.019531 588.375 212.789062 589.988281 C 214.558594 591.605469 216.386719 593.152344 218.269531 594.632812 C 220.152344 596.113281 222.089844 597.519531 224.078125 598.855469 C 226.066406 600.191406 228.101562 601.453125 230.183594 602.640625 C 232.265625 603.824219 234.390625 604.929688 236.554688 605.957031 C 238.71875 606.984375 240.917969 607.933594 243.152344 608.796875 C 245.386719 609.660156 247.652344 610.441406 249.941406 611.136719 C 252.234375 611.835938 254.550781 612.445312 256.886719 612.972656 C 259.226562 613.496094 261.578125 613.933594 263.949219 614.285156 C 266.320312 614.632812 268.699219 614.898438 271.089844 615.070312 C 273.476562 615.246094 275.871094 615.328125 278.265625 615.324219 L 626.800781 615.324219 C 627.90625 615.324219 629.003906 615.273438 630.101562 615.164062 C 631.199219 615.054688 632.289062 614.894531 633.371094 614.679688 C 634.453125 614.464844 635.519531 614.195312 636.574219 613.875 C 637.632812 613.554688 638.667969 613.183594 639.6875 612.761719 C 640.707031 612.339844 641.703125 611.871094 642.671875 611.351562 C 643.644531 610.832031 644.589844 610.265625 645.507812 609.652344 C 646.425781 609.039062 647.308594 608.382812 648.160156 607.683594 C 649.015625 606.984375 649.832031 606.246094 650.609375 605.464844 C 651.390625 604.683594 652.128906 603.867188 652.828125 603.015625 C 653.527344 602.164062 654.183594 601.28125 654.796875 600.363281 C 655.410156 599.445312 655.976562 598.5 656.496094 597.527344 C 657.015625 596.554688 657.484375 595.558594 657.910156 594.542969 C 658.332031 593.523438 658.703125 592.484375 659.019531 591.429688 C 659.339844 590.375 659.609375 589.308594 659.824219 588.226562 C 660.039062 587.144531 660.199219 586.054688 660.308594 584.957031 C 660.417969 583.859375 660.472656 582.761719 660.472656 581.65625 C 660.472656 580.554688 660.417969 579.453125 660.308594 578.355469 C 660.199219 577.261719 660.039062 576.171875 659.824219 575.089844 C 659.609375 574.007812 659.339844 572.9375 659.019531 571.882812 C 658.703125 570.828125 658.332031 569.792969 657.910156 568.773438 C 657.484375 567.753906 657.015625 566.757812 656.496094 565.785156 C 655.976562 564.8125 655.410156 563.867188 654.796875 562.953125 C 654.183594 562.035156 653.527344 561.152344 652.828125 560.296875 C 652.128906 559.445312 651.390625 558.628906 650.609375 557.851562 C 649.832031 557.070312 649.015625 556.332031 648.160156 555.632812 C 647.308594 554.933594 646.425781 554.277344 645.507812 553.664062 C 644.589844 553.050781 643.644531 552.484375 642.671875 551.964844 C 641.703125 551.445312 640.707031 550.972656 639.6875 550.550781 C 638.667969 550.128906 637.632812 549.757812 636.574219 549.4375 C 635.519531 549.117188 634.453125 548.851562 633.371094 548.636719 C 632.289062 548.421875 631.199219 548.257812 630.101562 548.152344 C 629.003906 548.042969 627.90625 547.988281 626.800781 547.988281 Z M 626.800781 547.988281 " fill-opacity="1" fill-rule="nonzero"/></g><path fill="#e2dac5" d="M 373.3125 699.496094 C 373.3125 701.152344 373.230469 702.800781 373.070312 704.445312 C 372.90625 706.09375 372.664062 707.726562 372.34375 709.351562 C 372.019531 710.972656 371.617188 712.574219 371.136719 714.15625 C 370.65625 715.738281 370.101562 717.296875 369.46875 718.824219 C 368.835938 720.351562 368.128906 721.84375 367.347656 723.304688 C 366.570312 724.761719 365.71875 726.179688 364.800781 727.554688 C 363.882812 728.929688 362.898438 730.257812 361.847656 731.535156 C 360.800781 732.8125 359.691406 734.039062 358.519531 735.207031 C 357.351562 736.378906 356.128906 737.488281 354.847656 738.535156 C 353.570312 739.585938 352.242188 740.570312 350.867188 741.488281 C 349.492188 742.40625 348.074219 743.257812 346.617188 744.035156 C 345.15625 744.816406 343.664062 745.523438 342.136719 746.15625 C 340.609375 746.789062 339.054688 747.34375 337.46875 747.824219 C 335.886719 748.304688 334.285156 748.707031 332.664062 749.03125 C 331.039062 749.351562 329.40625 749.59375 327.761719 749.757812 C 326.113281 749.917969 324.464844 750 322.808594 750 C 321.15625 750 319.503906 749.917969 317.859375 749.757812 C 316.214844 749.59375 314.578125 749.351562 312.957031 749.03125 C 311.335938 748.707031 309.730469 748.304688 308.148438 747.824219 C 306.566406 747.34375 305.011719 746.789062 303.484375 746.15625 C 301.953125 745.523438 300.460938 744.816406 299.003906 744.035156 C 297.542969 743.257812 296.128906 742.40625 294.75 741.488281 C 293.375 740.570312 292.050781 739.585938 290.769531 738.535156 C 289.492188 737.488281 288.269531 736.378906 287.097656 735.207031 C 285.929688 734.039062 284.820312 732.8125 283.769531 731.535156 C 282.722656 730.257812 281.738281 728.929688 280.816406 727.554688 C 279.898438 726.179688 279.050781 724.761719 278.269531 723.304688 C 277.492188 721.84375 276.785156 720.351562 276.152344 718.824219 C 275.519531 717.296875 274.960938 715.738281 274.480469 714.15625 C 274 712.574219 273.601562 710.972656 273.277344 709.351562 C 272.953125 707.726562 272.710938 706.09375 272.550781 704.449219 C 272.386719 702.800781 272.308594 701.152344 272.308594 699.496094 C 272.308594 697.84375 272.386719 696.191406 272.550781 694.546875 C 272.710938 692.902344 272.953125 691.265625 273.277344 689.644531 C 273.601562 688.023438 274 686.417969 274.480469 684.835938 C 274.960938 683.253906 275.519531 681.699219 276.152344 680.171875 C 276.785156 678.640625 277.492188 677.148438 278.269531 675.691406 C 279.050781 674.230469 279.898438 672.8125 280.816406 671.4375 C 281.738281 670.0625 282.722656 668.738281 283.769531 667.457031 C 284.820312 666.179688 285.929688 664.957031 287.097656 663.785156 C 288.269531 662.617188 289.492188 661.507812 290.769531 660.457031 C 292.050781 659.410156 293.375 658.425781 294.75 657.503906 C 296.128906 656.585938 297.542969 655.738281 299.003906 654.957031 C 300.460938 654.179688 301.953125 653.472656 303.484375 652.839844 C 305.011719 652.207031 306.566406 651.648438 308.148438 651.167969 C 309.730469 650.6875 311.335938 650.289062 312.957031 649.964844 C 314.578125 649.640625 316.214844 649.398438 317.859375 649.238281 C 319.503906 649.074219 321.15625 648.996094 322.808594 648.996094 C 324.464844 648.996094 326.113281 649.074219 327.761719 649.238281 C 329.40625 649.398438 331.039062 649.640625 332.664062 649.964844 C 334.285156 650.289062 335.886719 650.6875 337.46875 651.167969 C 339.054688 651.648438 340.609375 652.207031 342.136719 652.839844 C 343.664062 653.472656 345.15625 654.179688 346.617188 654.957031 C 348.074219 655.738281 349.492188 656.585938 350.867188 657.503906 C 352.242188 658.425781 353.570312 659.410156 354.847656 660.457031 C 356.128906 661.507812 357.351562 662.617188 358.519531 663.785156 C 359.691406 664.957031 360.800781 666.179688 361.847656 667.457031 C 362.898438 668.738281 363.882812 670.0625 364.800781 671.4375 C 365.71875 672.8125 366.570312 674.230469 367.347656 675.691406 C 368.128906 677.148438 368.835938 678.640625 369.46875 680.171875 C 370.101562 681.699219 370.65625 683.253906 371.136719 684.835938 C 371.617188 686.417969 372.019531 688.023438 372.34375 689.644531 C 372.664062 691.265625 372.90625 692.902344 373.070312 694.546875 C 373.230469 696.191406 373.3125 697.84375 373.3125 699.496094 Z M 373.3125 699.496094 " fill-opacity="1" fill-rule="nonzero"/><path fill="#e2dac5" d="M 608.992188 699.496094 C 608.992188 701.152344 608.910156 702.800781 608.75 704.445312 C 608.585938 706.09375 608.34375 707.726562 608.023438 709.351562 C 607.699219 710.972656 607.296875 712.574219 606.816406 714.15625 C 606.335938 715.738281 605.78125 717.296875 605.148438 718.824219 C 604.515625 720.351562 603.808594 721.84375 603.027344 723.304688 C 602.25 724.761719 601.398438 726.179688 600.480469 727.554688 C 599.5625 728.929688 598.578125 730.257812 597.527344 731.535156 C 596.480469 732.8125 595.371094 734.039062 594.199219 735.207031 C 593.03125 736.378906 591.804688 737.488281 590.527344 738.535156 C 589.25 739.585938 587.921875 740.570312 586.546875 741.488281 C 585.171875 742.40625 583.753906 743.257812 582.296875 744.035156 C 580.835938 744.816406 579.34375 745.523438 577.816406 746.15625 C 576.289062 746.789062 574.730469 747.34375 573.148438 747.824219 C 571.566406 748.304688 569.964844 748.707031 568.34375 749.03125 C 566.71875 749.351562 565.085938 749.59375 563.4375 749.757812 C 561.792969 749.917969 560.144531 750 558.488281 750 C 556.835938 750 555.183594 749.917969 553.539062 749.757812 C 551.894531 749.59375 550.257812 749.351562 548.636719 749.03125 C 547.015625 748.707031 545.410156 748.304688 543.828125 747.824219 C 542.246094 747.34375 540.691406 746.789062 539.164062 746.15625 C 537.632812 745.523438 536.140625 744.816406 534.683594 744.035156 C 533.222656 743.257812 531.808594 742.40625 530.429688 741.488281 C 529.054688 740.570312 527.730469 739.585938 526.449219 738.535156 C 525.171875 737.488281 523.949219 736.378906 522.777344 735.207031 C 521.609375 734.039062 520.5 732.8125 519.449219 731.535156 C 518.402344 730.257812 517.417969 728.929688 516.496094 727.554688 C 515.578125 726.179688 514.730469 724.761719 513.949219 723.304688 C 513.171875 721.84375 512.464844 720.351562 511.832031 718.824219 C 511.199219 717.296875 510.640625 715.738281 510.160156 714.15625 C 509.679688 712.574219 509.28125 710.972656 508.957031 709.351562 C 508.632812 707.726562 508.390625 706.09375 508.230469 704.449219 C 508.066406 702.800781 507.988281 701.152344 507.988281 699.496094 C 507.988281 697.84375 508.066406 696.191406 508.230469 694.546875 C 508.390625 692.902344 508.632812 691.265625 508.957031 689.644531 C 509.28125 688.023438 509.679688 686.417969 510.160156 684.835938 C 510.640625 683.253906 511.199219 681.699219 511.832031 680.171875 C 512.464844 678.640625 513.171875 677.148438 513.949219 675.691406 C 514.730469 674.230469 515.578125 672.8125 516.496094 671.4375 C 517.417969 670.0625 518.402344 668.738281 519.449219 667.457031 C 520.5 666.179688 521.609375 664.957031 522.777344 663.785156 C 523.949219 662.617188 525.171875 661.507812 526.449219 660.457031 C 527.730469 659.410156 529.054688 658.425781 530.429688 657.503906 C 531.808594 656.585938 533.222656 655.738281 534.683594 654.957031 C 536.140625 654.179688 537.632812 653.472656 539.164062 652.839844 C 540.691406 652.207031 542.246094 651.648438 543.828125 651.167969 C 545.410156 650.6875 547.015625 650.289062 548.636719 649.964844 C 550.257812 649.640625 551.894531 649.398438 553.539062 649.238281 C 555.183594 649.074219 556.835938 648.996094 558.488281 648.996094 C 560.144531 648.996094 561.792969 649.074219 563.4375 649.238281 C 565.085938 649.398438 566.71875 649.640625 568.34375 649.964844 C 569.964844 650.289062 571.566406 650.6875 573.148438 651.167969 C 574.730469 651.648438 576.289062 652.207031 577.816406 652.839844 C 579.34375 653.472656 580.835938 654.179688 582.296875 654.957031 C 583.753906 655.738281 585.171875 656.585938 586.546875 657.503906 C 587.921875 658.425781 589.25 659.410156 590.527344 660.457031 C 591.804688 661.507812 593.03125 662.617188 594.199219 663.785156 C 595.371094 664.957031 596.480469 666.179688 597.527344 667.457031 C 598.578125 668.738281 599.5625 670.0625 600.480469 671.4375 C 601.398438 672.8125 602.25 674.230469 603.027344 675.691406 C 603.808594 677.148438 604.515625 678.640625 605.148438 680.171875 C 605.78125 681.699219 606.335938 683.253906 606.816406 684.835938 C 607.296875 686.417969 607.699219 688.023438 608.023438 689.644531 C 608.34375 691.265625 608.585938 692.902344 608.75 694.546875 C 608.910156 696.191406 608.992188 697.84375 608.992188 699.496094 Z M 608.992188 699.496094 " fill-opacity="1" fill-rule="nonzero"/></svg>