<svg xmlns="http://www.w3.org/2000/svg" xmlns:xlink="http://www.w3.org/1999/xlink" width="1000" zoomAndPan="magnify" viewBox="0 0 750 749.999995" height="1000" preserveAspectRatio="xMidYMid meet" version="1.0"><defs><clipPath id="39564fb7a9"><path d="M 343.824219 37.5 L 352.824219 37.5 L 352.824219 46.5 L 343.824219 46.5 Z M 343.824219 37.5 " clip-rule="nonzero"/></clipPath><clipPath id="85cda4e2d9"><path d="M 11.25 0 L 735 0 L 735 750 L 11.25 750 Z M 11.25 0 " clip-rule="nonzero"/></clipPath></defs><g clip-path="url(#39564fb7a9)"><path fill="#000000" d="M 347.46875 37.515625 C 345.445312 37.539062 343.824219 39.195312 343.847656 41.21875 C 343.867188 43.242188 345.527344 44.867188 347.550781 44.84375 C 348.296875 44.835938 349.023438 44.597656 349.632812 44.164062 L 351.726562 46.257812 C 351.964844 46.492188 352.351562 46.492188 352.589844 46.25 C 352.824219 46.015625 352.824219 45.632812 352.589844 45.394531 L 350.496094 43.300781 C 351.667969 41.652344 351.28125 39.367188 349.632812 38.195312 C 349.003906 37.746094 348.246094 37.507812 347.46875 37.515625 Z M 347.425781 38.148438 C 349.097656 38.105469 350.488281 39.421875 350.535156 41.089844 C 350.535156 41.121094 350.539062 41.148438 350.539062 41.179688 C 350.539062 42.851562 349.183594 44.207031 347.511719 44.207031 C 345.839844 44.207031 344.484375 42.855469 344.484375 41.183594 C 344.484375 41.179688 344.484375 41.179688 344.484375 41.179688 C 344.480469 39.539062 345.785156 38.195312 347.425781 38.148438 Z M 347.425781 38.148438 " fill-opacity="1" fill-rule="nonzero"/></g><path fill="#000000" d="M 346.691406 38.933594 C 346.859375 38.875 347.042969 38.960938 347.101562 39.128906 C 347.160156 39.292969 347.074219 39.472656 346.910156 39.535156 C 346.21875 39.785156 345.757812 40.441406 345.757812 41.179688 C 345.757812 41.355469 345.617188 41.5 345.441406 41.5 C 345.265625 41.5 345.121094 41.355469 345.121094 41.179688 C 345.121094 40.175781 345.75 39.277344 346.691406 38.933594 Z M 346.691406 38.933594 " fill-opacity="1" fill-rule="nonzero"/><g clip-path="url(#85cda4e2d9)"><path fill="#e2dac5" d="M 723.757812 689.84375 L 544.070312 517.214844 C 597.441406 460.117188 626.6875 386.0625 626.6875 307.503906 C 626.6875 228.949219 594.664062 148.164062 536.621094 90.066406 C 478.519531 31.96875 401.296875 0 319.179688 0 C 237.066406 0 159.839844 31.96875 101.742188 90.066406 C 43.644531 148.164062 11.675781 225.390625 11.675781 307.503906 C 11.675781 389.621094 43.644531 466.847656 101.742188 524.945312 C 159.839844 583.042969 237.066406 615.011719 319.179688 615.011719 C 381.117188 615.011719 440.214844 596.832031 490.472656 562.972656 L 675.167969 740.382812 C 681.726562 746.664062 690.34375 750.167969 699.460938 750.167969 C 708.582031 750.167969 718.199219 746.21875 724.757812 739.382812 C 738.15625 725.425781 737.714844 703.1875 723.757812 689.789062 Z M 454.28125 509.378906 C 415.640625 535.285156 369.21875 550.40625 319.179688 550.40625 C 185.027344 550.40625 76.335938 441.660156 76.335938 307.5625 C 76.335938 173.460938 185.027344 64.660156 319.179688 64.660156 C 453.335938 64.660156 562.027344 173.40625 562.027344 307.503906 C 562.027344 374 535.285156 434.265625 491.976562 478.132812 C 480.523438 489.75 467.847656 500.257812 454.226562 509.378906 Z M 454.28125 509.378906 " fill-opacity="1" fill-rule="nonzero"/></g></svg>